<svg width="601" height="163" viewBox="0 0 601 163" fill="none" xmlns="http://www.w3.org/2000/svg">
<g filter="url(#filter0_d_203_46)">
<g clip-path="url(#clip0_203_46)">
<path d="M250.62 66.68H230.04L226.414 53.254H206.716L202.992 66.68H183L204.756 2H228.766L250.62 66.68ZM210.048 40.318H223.18L216.614 16.21L210.048 40.318Z" fill="black"/>
<path d="M372.089 1.32031V66.0003H351.999V1.32031H372.089ZM331.027 1.32031V66.0003H311.035V1.32031H331.027ZM362.975 25.9183V40.9123H320.737V25.9183H362.975Z" fill="black"/>
<path d="M441.484 66.0003H420.904L417.278 52.5743H397.58L393.856 66.0003H373.864L395.62 1.32031H419.63L441.484 66.0003ZM400.912 39.6383H414.044L407.478 15.5303L400.912 39.6383Z" fill="black"/>
<path d="M463.2 1.32031V66.0003H443.208V1.32031H463.2Z" fill="black"/>
<path d="M532.209 1.32031V66.0003H510.257L492.617 33.9543L488.501 25.2323H488.305L488.697 37.9723V66.0003H471.253V1.32031H493.107L510.747 33.3663L514.961 42.0883H515.059L514.667 29.3483V1.32031H532.209Z" fill="black"/>
<path d="M567.111 0.339844C573.252 0.339844 578.708 1.18918 583.477 2.88784C588.246 4.52118 592.428 7.03651 596.021 10.4339L587.299 23.2719C584.359 20.7892 581.223 18.8619 577.891 17.4899C574.624 16.0526 570.998 15.3339 567.013 15.3339C564.988 15.3339 563.354 15.5299 562.113 15.9219C560.872 16.3139 559.957 16.8692 559.369 17.5879C558.846 18.2412 558.585 18.9926 558.585 19.8419C558.585 20.8872 559.206 21.7366 560.447 22.3899C561.754 23.0432 563.55 23.6312 565.837 24.1539L575.637 26.4079C582.17 27.9106 587.038 30.1319 590.239 33.0719C593.44 35.9466 595.041 39.8992 595.041 44.9299C595.041 49.8299 593.8 53.9132 591.317 57.1799C588.9 60.4466 585.568 62.8966 581.321 64.5299C577.074 66.1632 572.272 66.9799 566.915 66.9799C562.668 66.9799 558.52 66.5552 554.469 65.7059C550.484 64.8566 546.825 63.6479 543.493 62.0799C540.161 60.4466 537.286 58.5192 534.869 56.2979L543.493 43.0679C545.257 44.7666 547.413 46.3019 549.961 47.6739C552.509 48.9806 555.22 50.0259 558.095 50.8099C560.97 51.5939 563.746 51.9859 566.425 51.9859C568.32 51.9859 569.855 51.8226 571.031 51.4959C572.272 51.1039 573.154 50.5812 573.677 49.9279C574.2 49.2746 574.461 48.4906 574.461 47.5759C574.461 46.4652 574.036 45.5832 573.187 44.9299C572.338 44.2112 570.737 43.5906 568.385 43.0679L557.605 40.6179C554.077 39.8339 550.81 38.7559 547.805 37.3839C544.8 36.0119 542.382 34.1172 540.553 31.6999C538.789 29.2172 537.907 25.9832 537.907 21.9979C537.907 17.7512 539.05 13.9946 541.337 10.7279C543.624 7.46118 546.956 4.91318 551.333 3.08385C555.71 1.25451 560.97 0.339844 567.111 0.339844Z" fill="black"/>
<path d="M142.62 152H122.04L118.414 138.574H98.716L94.992 152H75L96.756 87.3203H120.766L142.62 152ZM102.048 125.638H115.18L108.614 101.53L102.048 125.638Z" fill="black"/>
<path d="M177.468 87.3203C185.504 87.3203 191.711 89.1823 196.088 92.9063C200.531 96.5649 202.752 101.465 202.752 107.606C202.752 114.466 200.596 119.66 196.284 123.188C191.972 126.716 185.766 128.48 177.664 128.48L175.704 129.558H163.944V152H144.344V87.3203H177.468ZM174.234 115.936C177.044 115.936 179.134 115.413 180.506 114.368C181.944 113.257 182.662 111.461 182.662 108.978C182.662 106.495 181.944 104.699 180.506 103.588C179.134 102.477 177.044 101.922 174.234 101.922H163.944V115.936H174.234ZM186.092 120.15L206.476 152H184.622L168.844 123.678L186.092 120.15Z" fill="black"/>
<path d="M208.852 152V87.3203H260.988V102.314H228.844V112.8H254.52V126.716H228.844V137.006H262.262V152H208.852Z" fill="black"/>
<path d="M308.668 137.006H339.44V152H288.676V87.3203H308.668V137.006Z" fill="black"/>
<path d="M363.893 87.3203V152H343.901V87.3203H363.893Z" fill="black"/>
<path d="M434.273 87.3203L411.929 152H388.213L365.869 87.3203H386.743L397.131 124.462L400.463 137.104L403.599 124.658L414.085 87.3203H434.273Z" fill="black"/>
<path d="M436.262 152V87.3203H488.398V102.314H456.254V112.8H481.93V126.716H456.254V137.006H489.672V152H436.262Z" fill="black"/>
<path d="M519.557 87V100.962L517.368 120H500.747L498.557 100.962V87H519.557Z" fill="black"/>
<path d="M509.058 155C517.657 155 524.557 148.099 524.557 139.5C524.557 130.901 517.551 124 509.058 124C500.459 124 493.559 130.901 493.559 139.5C493.452 148.099 500.459 155 509.058 155Z" fill="#E6007A"/>
<path d="M309.544 47.452C308.368 52.2213 306.375 56.1087 303.566 59.114C300.822 62.1193 297.457 64.308 293.472 65.68C289.552 66.9867 285.207 67.64 280.438 67.64C273.774 67.64 267.992 66.3333 263.092 63.72C258.257 61.0413 254.533 57.2193 251.92 52.254C249.307 47.2887 248 41.3107 248 34.32C248 27.3293 249.307 21.3513 251.92 16.386C254.533 11.4207 258.257 7.63133 263.092 5.018C267.992 2.33933 273.741 1 280.34 1C285.044 1 289.356 1.65333 293.276 2.96C297.261 4.26666 300.626 6.292 303.37 9.036C306.114 11.78 307.976 15.3407 308.956 19.718L291.61 26.676C290.891 22.4947 289.617 19.718 287.788 18.346C286.024 16.974 283.737 16.288 280.928 16.288C278.315 16.288 276.061 16.974 274.166 18.346C272.337 19.6527 270.932 21.6453 269.952 24.324C269.037 26.9373 268.58 30.2693 268.58 34.32C268.58 38.3053 269.005 41.6373 269.854 44.316C270.769 46.9947 272.141 49.02 273.97 50.392C275.865 51.6987 278.315 52.352 281.32 52.352C283.999 52.352 286.253 51.568 288.082 50C289.911 48.432 291.12 45.982 291.708 42.65L309.544 47.452Z" fill="black"/>
<path d="M13.5156 1.75H25.4219L42.9531 51.8594L60.4844 1.75H72.3906L47.7344 70H38.1719L13.5156 1.75ZM7.09375 1.75H18.9531L21.1094 50.5938V70H7.09375V1.75ZM66.9531 1.75H78.8594V70H64.7969V50.5938L66.9531 1.75Z" fill="black"/>
<path d="M174.609 1.75V70H160.594V1.75H174.609ZM195.609 1.75V12.7656H139.922V1.75H195.609Z" fill="black"/>
</g>
<path d="M86 66.6799V2H138.136V16.9939H105.992V27.4799H131.668V41.3959H105.992V51.6859H139.41V66.6799H86Z" fill="black"/>
</g>
<defs>
<filter id="filter0_d_203_46" x="0" y="0" width="601" height="163" filterUnits="userSpaceOnUse" color-interpolation-filters="sRGB">
<feFlood flood-opacity="0" result="BackgroundImageFix"/>
<feColorMatrix in="SourceAlpha" type="matrix" values="0 0 0 0 0 0 0 0 0 0 0 0 0 0 0 0 0 0 127 0" result="hardAlpha"/>
<feOffset dy="4"/>
<feGaussianBlur stdDeviation="2"/>
<feComposite in2="hardAlpha" operator="out"/>
<feColorMatrix type="matrix" values="0 0 0 0 0 0 0 0 0 0 0 0 0 0 0 0 0 0 0.25 0"/>
<feBlend mode="normal" in2="BackgroundImageFix" result="effect1_dropShadow_203_46"/>
<feBlend mode="normal" in="SourceGraphic" in2="effect1_dropShadow_203_46" result="shape"/>
</filter>
<clipPath id="clip0_203_46">
<rect width="593" height="155" fill="white" transform="translate(4)"/>
</clipPath>
</defs>
</svg>
